#Comment line ignore any data following # character 
#Hierarchical Translation and Rotation (.htr) file 
[Header]	
#Header keywords are followed by a single value 
FileType HTR		#Single word string
DataType HTRS		#Translation followed by rotation and scale data
FileVersion 1		#integer
NumSegments 84		#integer
NumFrames 2		#integer
DataFrameRate 30		#integer, data frame rate in this file
EulerRotationOrder ZYX
CalibrationUnits mm
RotationUnits Degrees
GlobalAxisofGravity Y
BoneLengthAxis Y
ScaleFactor 1.00
[SegmentNames&Hierarchy]
#CHILD	PARENT
MASTER GLOBAL
root MASTER
chest root
L_mid_tent01 root
R_mid_tent01 root
spine01 root
Bip01_Neck chest
L_humerus chest
R_humerus chest
weapon_bone chest
Bip01_Head Bip01_Neck
eye_left_bone Bip01_Head
eye_right_bone Bip01_Head
L_forearm L_humerus
L_front_hand L_forearm
L_weapon_bone L_forearm
L_front_hand01_01 L_front_hand
L_front_hand02_01 L_front_hand
L_front_hand03_01 L_front_hand
L_front_hand01_02 L_front_hand01_01
L_front_hand02_02 L_front_hand02_01
L_front_hand03_02 L_front_hand03_01
R_forearm R_humerus
R_front_hand R_forearm
R_weapon_bone R_forearm
R_front_hand01_01 R_front_hand
R_front_hand02_01 R_front_hand
R_front_hand03_01 R_front_hand
R_front_hand01_02 R_front_hand01_01
R_front_hand02_02 R_front_hand02_01
R_front_hand03_02 R_front_hand03_01
null_rope01_connect L_mid_tent01
Rope1_Seg01 null_rope01_connect
Rope1_Seg02 Rope1_Seg01
Rope1_Seg03 Rope1_Seg02
Rope1_Seg04 Rope1_Seg03
Rope1_Seg05 Rope1_Seg04
Rope1_Seg06 Rope1_Seg05
Rope1_Seg07 Rope1_Seg06
Rope1_Seg09 Rope1_Seg07
L_mid_hand01 Rope1_Seg09
L_mid_hand02 Rope1_Seg09
L_mid_hand03 Rope1_Seg09
null_rope02_connect R_mid_tent01
Rope2_Seg01 null_rope02_connect
Rope2_Seg02 Rope2_Seg01
Rope2_Seg03 Rope2_Seg02
Rope2_Seg04 Rope2_Seg03
Rope2_Seg05 Rope2_Seg04
Rope2_Seg06 Rope2_Seg05
Rope2_Seg07 Rope2_Seg06
Rope2_Seg09 Rope2_Seg07
R_mid_hand01 Rope2_Seg09
R_mid_hand02 Rope2_Seg09
R_mid_hand03 Rope2_Seg09
spine02 spine01
spine03 spine02
pelvis spine03
null_rope03_connect pelvis
null_rope04_connect pelvis
Rope3_Seg01 null_rope03_connect
Rope3_Seg02 Rope3_Seg01
Rope3_Seg03 Rope3_Seg02
Rope3_Seg04 Rope3_Seg03
Rope3_Seg05 Rope3_Seg04
Rope3_Seg06 Rope3_Seg05
Rope3_Seg07 Rope3_Seg06
Rope3_Seg08 Rope3_Seg07
Rope3_Seg09 Rope3_Seg08
R_rear_hand01 Rope3_Seg09
R_rear_hand02 Rope3_Seg09
R_rear_hand03 Rope3_Seg09
Rope4_Seg01 null_rope04_connect
Rope4_Seg02 Rope4_Seg01
Rope4_Seg03 Rope4_Seg02
Rope4_Seg04 Rope4_Seg03
Rope4_Seg05 Rope4_Seg04
Rope4_Seg06 Rope4_Seg05
Rope4_Seg07 Rope4_Seg06
Rope4_Seg08 Rope4_Seg07
Rope4_Seg09 Rope4_Seg08
L_rear_hand01 Rope4_Seg09
L_rear_hand02 Rope4_Seg09
L_rear_hand03 Rope4_Seg09
[BasePosition]
#SegmentName Tx, Ty, Tz, Rx, Ry, Rz, BoneLength
MASTER 0.000000 0.000000 0.000000 -90.000000 0.000000 0.000000 10.000000 
root 0.000000 0.000000 0.000000 0.000000 0.000000 0.000000 10.000000 
chest 0.000000 0.000000 0.000000 0.000000 0.000000 0.000000 10.000000 
L_mid_tent01 0.000000 0.000000 0.000000 0.000000 0.000000 0.000000 10.000000 
R_mid_tent01 0.000000 0.000000 0.000000 0.000000 0.000000 0.000000 10.000000 
spine01 0.000000 0.000000 0.000000 0.000000 0.000000 0.000000 10.000000 
Bip01_Neck 0.000000 0.000000 0.000000 0.000000 0.000000 0.000000 10.000000 
L_humerus 0.000000 0.000000 0.000000 0.000000 0.000000 0.000000 10.000000 
R_humerus 0.000000 0.000000 0.000000 0.000000 0.000000 0.000000 10.000000 
weapon_bone 0.000000 0.000000 0.000000 0.000000 0.000000 0.000000 10.000000 
Bip01_Head 0.000000 0.000000 0.000000 0.000000 0.000000 0.000000 10.000000 
eye_left_bone 0.000000 0.000000 0.000000 0.000000 0.000000 0.000000 10.000000 
eye_right_bone 0.000000 0.000000 0.000000 0.000000 0.000000 0.000000 10.000000 
L_forearm 0.000000 0.000000 0.000000 0.000000 0.000000 0.000000 10.000000 
L_front_hand 0.000000 0.000000 0.000000 0.000000 0.000000 0.000000 10.000000 
L_weapon_bone 0.000000 0.000000 0.000000 0.000000 0.000000 0.000000 10.000000 
L_front_hand01_01 0.000000 0.000000 0.000000 0.000000 0.000000 0.000000 10.000000 
L_front_hand02_01 0.000000 0.000000 0.000000 0.000000 0.000000 0.000000 10.000000 
L_front_hand03_01 0.000000 0.000000 0.000000 0.000000 0.000000 0.000000 10.000000 
L_front_hand01_02 0.000000 0.000000 0.000000 0.000000 0.000000 0.000000 10.000000 
L_front_hand02_02 0.000000 0.000000 0.000000 0.000000 0.000000 0.000000 10.000000 
L_front_hand03_02 0.000000 0.000000 0.000000 0.000000 0.000000 0.000000 10.000000 
R_forearm 0.000000 0.000000 0.000000 0.000000 0.000000 0.000000 10.000000 
R_front_hand 0.000000 0.000000 0.000000 0.000000 0.000000 0.000000 10.000000 
R_weapon_bone 0.000000 0.000000 0.000000 0.000000 0.000000 0.000000 10.000000 
R_front_hand01_01 0.000000 0.000000 0.000000 0.000000 0.000000 0.000000 10.000000 
R_front_hand02_01 0.000000 0.000000 0.000000 0.000000 0.000000 0.000000 10.000000 
R_front_hand03_01 0.000000 0.000000 0.000000 0.000000 0.000000 0.000000 10.000000 
R_front_hand01_02 0.000000 0.000000 0.000000 0.000000 0.000000 0.000000 10.000000 
R_front_hand02_02 0.000000 0.000000 0.000000 0.000000 0.000000 0.000000 10.000000 
R_front_hand03_02 0.000000 0.000000 0.000000 0.000000 0.000000 0.000000 10.000000 
null_rope01_connect 0.000000 0.000000 0.000000 0.000000 0.000000 0.000000 10.000000 
Rope1_Seg01 0.000000 0.000000 0.000000 0.000000 0.000000 0.000000 10.000000 
Rope1_Seg02 0.000000 0.000000 0.000000 0.000000 0.000000 0.000000 10.000000 
Rope1_Seg03 0.000000 0.000000 0.000000 0.000000 0.000000 0.000000 10.000000 
Rope1_Seg04 0.000000 0.000000 0.000000 0.000000 0.000000 0.000000 10.000000 
Rope1_Seg05 0.000000 0.000000 0.000000 0.000000 0.000000 0.000000 10.000000 
Rope1_Seg06 0.000000 0.000000 0.000000 0.000000 0.000000 0.000000 10.000000 
Rope1_Seg07 0.000000 0.000000 0.000000 0.000000 0.000000 0.000000 10.000000 
Rope1_Seg09 0.000000 0.000000 0.000000 0.000000 0.000000 0.000000 10.000000 
L_mid_hand01 0.000000 0.000000 0.000000 0.000000 0.000000 0.000000 10.000000 
L_mid_hand02 0.000000 0.000000 0.000000 0.000000 0.000000 0.000000 10.000000 
L_mid_hand03 0.000000 0.000000 0.000000 0.000000 0.000000 0.000000 10.000000 
null_rope02_connect 0.000000 0.000000 0.000000 0.000000 0.000000 0.000000 10.000000 
Rope2_Seg01 0.000000 0.000000 0.000000 0.000000 0.000000 0.000000 10.000000 
Rope2_Seg02 0.000000 0.000000 0.000000 0.000000 0.000000 0.000000 10.000000 
Rope2_Seg03 0.000000 0.000000 0.000000 0.000000 0.000000 0.000000 10.000000 
Rope2_Seg04 0.000000 0.000000 0.000000 0.000000 0.000000 0.000000 10.000000 
Rope2_Seg05 0.000000 0.000000 0.000000 0.000000 0.000000 0.000000 10.000000 
Rope2_Seg06 0.000000 0.000000 0.000000 0.000000 0.000000 0.000000 10.000000 
Rope2_Seg07 0.000000 0.000000 0.000000 0.000000 0.000000 0.000000 10.000000 
Rope2_Seg09 0.000000 0.000000 0.000000 0.000000 0.000000 0.000000 10.000000 
R_mid_hand01 0.000000 0.000000 0.000000 0.000000 0.000000 0.000000 10.000000 
R_mid_hand02 0.000000 0.000000 0.000000 0.000000 0.000000 0.000000 10.000000 
R_mid_hand03 0.000000 0.000000 0.000000 0.000000 0.000000 0.000000 10.000000 
spine02 0.000000 0.000000 0.000000 0.000000 0.000000 0.000000 10.000000 
spine03 0.000000 0.000000 0.000000 0.000000 0.000000 0.000000 10.000000 
pelvis 0.000000 0.000000 0.000000 0.000000 0.000000 0.000000 10.000000 
null_rope03_connect 0.000000 0.000000 0.000000 0.000000 0.000000 0.000000 10.000000 
null_rope04_connect 0.000000 0.000000 0.000000 0.000000 0.000000 0.000000 10.000000 
Rope3_Seg01 0.000000 0.000000 0.000000 0.000000 0.000000 0.000000 10.000000 
Rope3_Seg02 0.000000 0.000000 0.000000 0.000000 0.000000 0.000000 10.000000 
Rope3_Seg03 0.000000 0.000000 0.000000 0.000000 0.000000 0.000000 10.000000 
Rope3_Seg04 0.000000 0.000000 0.000000 0.000000 0.000000 0.000000 10.000000 
Rope3_Seg05 0.000000 0.000000 0.000000 0.000000 0.000000 0.000000 10.000000 
Rope3_Seg06 0.000000 0.000000 0.000000 0.000000 0.000000 0.000000 10.000000 
Rope3_Seg07 0.000000 0.000000 0.000000 0.000000 0.000000 0.000000 10.000000 
Rope3_Seg08 0.000000 0.000000 0.000000 0.000000 0.000000 0.000000 10.000000 
Rope3_Seg09 0.000000 0.000000 0.000000 0.000000 0.000000 0.000000 10.000000 
R_rear_hand01 0.000000 0.000000 0.000000 0.000000 0.000000 0.000000 10.000000 
R_rear_hand02 0.000000 0.000000 0.000000 0.000000 0.000000 0.000000 10.000000 
R_rear_hand03 0.000000 0.000000 0.000000 0.000000 0.000000 0.000000 10.000000 
Rope4_Seg01 0.000000 0.000000 0.000000 0.000000 0.000000 0.000000 10.000000 
Rope4_Seg02 0.000000 0.000000 0.000000 0.000000 0.000000 0.000000 10.000000 
Rope4_Seg03 0.000000 0.000000 0.000000 0.000000 0.000000 0.000000 10.000000 
Rope4_Seg04 0.000000 0.000000 0.000000 0.000000 0.000000 0.000000 10.000000 
Rope4_Seg05 0.000000 0.000000 0.000000 0.000000 0.000000 0.000000 10.000000 
Rope4_Seg06 0.000000 0.000000 0.000000 0.000000 0.000000 0.000000 10.000000 
Rope4_Seg07 0.000000 0.000000 0.000000 0.000000 0.000000 0.000000 10.000000 
Rope4_Seg08 0.000000 0.000000 0.000000 0.000000 0.000000 0.000000 10.000000 
Rope4_Seg09 0.000000 0.000000 0.000000 0.000000 0.000000 0.000000 10.000000 
L_rear_hand01 0.000000 0.000000 0.000000 0.000000 0.000000 0.000000 10.000000 
L_rear_hand02 0.000000 0.000000 0.000000 0.000000 0.000000 0.000000 10.000000 
L_rear_hand03 0.000000 0.000000 0.000000 0.000000 0.000000 0.000000 10.000000 
#Beginning of Data. Separated by tabs
#Fr	Tx	Ty	Tz	Rx	Ry	Rz	SF
[MASTER]
29 0.000000 0.000000 0.000000 0.001660 0.001660 0.001660 0.000000
30 0.000000 0.000000 0.000000 0.001660 0.001660 0.001660 0.000000
[root]
29 22.418661 289.529724 1517.755493 -70.758514 -12.178428 -127.384285 1545.286987
30 19.702282 262.227997 1504.370361 -72.438751 -12.043952 -121.922226 1527.181030
[chest]
29 -84.512650 -34.090519 0.000000 -2.855064 -2.967859 176.384766 91.129311
30 -84.512650 -34.090519 0.000000 -2.841365 -2.059797 176.253601 91.129311
[L_mid_tent01]
29 27.299427 22.178406 -249.918747 95.116898 29.809269 128.953171 252.381699
30 27.299385 22.178501 -249.918747 85.385155 36.259911 116.575333 252.381699
[R_mid_tent01]
29 23.228794 24.509907 226.238495 -130.457138 -12.276622 29.309698 228.744751
30 23.228794 24.509907 226.238495 -134.262772 -8.911430 28.002516 228.744751
[spine01]
29 -0.361383 -0.195265 0.000000 0.001936 0.001327 21.150606 0.410763
30 -0.361383 -0.195265 0.000000 0.001937 0.001326 21.219376 0.410763
[Bip01_Neck]
29 165.484543 71.581718 0.000119 175.896118 1.177290 24.871183 180.302734
30 165.484543 71.581718 0.000119 175.896118 1.177290 24.871183 180.302734
[L_humerus]
29 -13.983130 -135.272980 -120.471481 -78.674255 38.536304 13.267262 181.680161
30 -13.983130 -135.272980 -120.471481 -79.174599 43.899963 14.734786 181.680161
[R_humerus]
29 -13.983309 -135.273102 125.287651 138.257889 -38.517696 -20.100796 184.909012
30 -13.983309 -135.273102 125.287651 137.335449 -40.180824 -20.492952 184.909012
[weapon_bone]
29 235.964890 -300.705902 0.000000 0.000000 -89.951546 -128.212341 382.234833
30 235.964890 -300.705902 0.000000 0.000000 -89.951546 -128.212341 382.234833
[Bip01_Head]
29 251.830902 95.067039 2.540204 30.962070 11.245573 -69.483093 269.189514
30 247.948380 102.250824 3.376007 27.094872 10.194285 -69.202858 268.225708
[eye_left_bone]
29 31.376190 157.512344 -75.274200 -110.329659 -85.986877 10.895030 177.371948
30 30.804443 157.288544 -75.196457 -109.132278 -85.912659 9.686112 177.039856
[eye_right_bone]
29 38.830414 158.781616 53.546181 69.708015 -85.989067 10.858736 172.007553
30 38.528099 158.507355 53.612648 70.883759 -85.914574 9.669974 171.707047
[L_forearm]
29 322.776093 0.000000 -0.000119 0.000806 0.002205 -49.845013 322.776093
30 322.776093 0.000000 -0.000119 0.000601 0.002269 -60.312416 322.776093
[L_front_hand]
29 241.149185 -0.042021 -3.300071 39.578915 3.347552 -5.332743 241.171753
30 241.149185 -0.042021 -3.300071 39.578922 3.347553 -5.332744 241.171753
[L_weapon_bone]
29 156.183838 0.000000 0.000000 0.001021 0.002118 -38.511108 156.183838
30 156.183838 0.000000 0.000000 0.001136 0.002054 -32.119106 156.183838
[L_front_hand01_01]
29 86.095154 20.947098 -0.655860 -0.288967 -0.524182 66.581490 88.609184
30 86.095154 20.947098 -0.655860 -0.288967 -0.524182 66.581490 88.609184
[L_front_hand02_01]
29 86.935165 -11.437475 24.513514 142.546371 -55.255390 -47.355206 91.046425
30 86.935165 -11.437475 24.513514 142.546371 -55.255405 -47.355213 91.046425
[L_front_hand03_01]
29 86.637497 -14.123976 -20.424902 -142.852753 53.473362 -49.356201 90.126129
30 86.637497 -14.123976 -20.424902 -142.852753 53.473362 -49.356201 90.126129
[L_front_hand01_02]
29 71.020905 -0.000179 0.000030 0.001468 0.001832 -12.590628 71.020905
30 71.020905 -0.000179 0.000030 0.001284 0.001965 -23.693426 71.020905
[L_front_hand02_02]
29 71.020927 -0.000119 0.000060 0.001468 0.001832 -12.590628 71.020927
30 71.020927 -0.000119 0.000060 0.001284 0.001965 -23.693426 71.020927
[L_front_hand03_02]
29 71.020905 -0.000060 0.000060 0.001468 0.001832 -12.590628 71.020905
30 71.020905 -0.000060 0.000060 0.001284 0.001965 -23.693426 71.020905
[R_forearm]
29 322.776428 -0.000060 0.000030 0.127676 -0.168807 -37.891727 322.776428
30 322.776428 -0.000060 0.000030 0.135083 -0.165004 -39.774330 322.776428
[R_front_hand]
29 238.847015 -0.006795 2.210259 -2.635298 -10.645461 -26.312506 238.857239
30 238.847015 -0.006795 2.210259 -2.635298 -10.645461 -26.312506 238.857239
[R_weapon_bone]
29 155.664093 0.002503 -0.000030 0.003487 0.001180 -90.988930 155.664078
30 155.664093 0.002503 -0.000030 0.003487 0.001180 -90.988930 155.664078
[R_front_hand01_01]
29 87.624611 14.231146 22.918642 -154.633484 -59.950619 61.746037 91.683487
30 87.624611 14.231146 22.918642 -154.633499 -59.950619 61.746044 91.683487
[R_front_hand02_01]
29 89.356956 14.367283 -19.491137 154.602661 58.302849 63.744389 92.579636
30 89.356956 14.367283 -19.491137 154.602661 58.302849 63.744389 92.579636
[R_front_hand03_01]
29 87.286232 -22.307278 -0.143439 0.162155 -0.423168 -75.767921 90.091743
30 87.286232 -22.307278 -0.143439 0.162155 -0.423168 -75.767906 90.091743
[R_front_hand01_02]
29 71.020905 0.000060 0.000119 0.002323 -0.000334 106.381714 71.020905
30 71.020905 0.000060 0.000119 0.002323 -0.000334 106.381714 71.020905
[R_front_hand02_02]
29 71.020844 -0.000030 -0.000119 0.002323 -0.000334 106.381714 71.020836
30 71.020844 -0.000030 -0.000119 0.002323 -0.000334 106.381714 71.020836
[R_front_hand03_02]
29 71.020905 0.000000 0.000030 0.002323 -0.000334 106.381714 71.020905
30 71.020905 0.000000 0.000030 0.002323 -0.000334 106.381714 71.020905
[null_rope01_connect]
29 328.732483 0.000000 -0.000238 -116.800323 27.007238 88.398766 328.732483
30 328.732483 0.000000 -0.000238 -105.605118 18.761532 102.380074 328.732483
[Rope1_Seg01]
29 -0.000038 -0.000114 0.000110 73.949165 45.369598 87.190521 0.000163
30 -0.000038 -0.000114 0.000110 75.690292 42.625401 88.733116 0.000163
[Rope1_Seg02]
29 139.999863 -0.000179 0.000000 -3.734659 -15.682692 12.104266 139.999863
30 139.999863 -0.000179 0.000000 -2.808236 -16.225285 18.765141 139.999863
[Rope1_Seg03]
29 139.999924 0.000060 -0.000060 -7.278977 -17.484612 14.590165 139.999924
30 139.999924 0.000060 -0.000060 2.721321 -14.795568 21.256979 139.999924
[Rope1_Seg04]
29 139.999924 -0.000060 -0.000119 -11.094830 -11.593968 7.202412 139.999924
30 139.999924 -0.000060 -0.000119 -11.967673 -1.607355 -7.165437 139.999924
[Rope1_Seg05]
29 139.999832 0.000119 -0.000060 -1.791157 5.499457 -7.358753 139.999832
30 139.999832 0.000119 -0.000060 -7.279591 5.498046 -14.219440 139.999832
[Rope1_Seg06]
29 139.999954 0.000119 -0.000060 0.320616 8.293109 -8.273244 139.999954
30 139.999954 0.000119 -0.000060 -1.832780 1.939416 -4.829380 139.999954
[Rope1_Seg07]
29 139.999985 0.000060 0.000000 -0.458215 2.595591 -3.477094 139.999985
30 139.999985 0.000060 0.000000 -0.943280 1.307670 -3.026619 139.999985
[Rope1_Seg09]
29 121.602913 0.000119 -0.000089 -5.688957 -1.357701 0.846611 121.602913
30 121.602913 0.000119 -0.000089 10.000564 -1.358246 0.846031 121.602913
[L_mid_hand01]
29 103.859421 1.038730 8.195221 123.754440 -63.500896 -31.414322 104.187431
30 103.859421 1.038730 8.195221 118.586266 -58.785637 -25.516756 104.187431
[L_mid_hand02]
29 105.572853 -4.139662 -10.864139 -164.309647 42.223709 -66.723480 106.211075
30 105.572853 -4.139662 -10.864139 -159.699860 40.522484 -59.749607 106.211075
[L_mid_hand03]
29 104.641464 17.579376 -3.913581 -7.618871 17.202656 69.572121 106.179977
30 104.641464 17.579376 -3.913581 -9.259432 16.391672 63.887276 106.179977
[null_rope02_connect]
29 328.732849 0.000179 -0.000119 164.285645 14.460217 -106.172417 328.732849
30 328.732849 0.000179 -0.000119 162.174240 20.695820 -105.542923 328.732849
[Rope2_Seg01]
29 0.000068 0.000110 0.000000 98.678375 15.223459 -58.563526 0.000130
30 0.000073 0.000111 0.000000 90.518570 15.297975 -51.526466 0.000133
[Rope2_Seg02]
29 139.999741 -0.000060 -0.000119 -71.336174 16.688667 11.097981 139.999756
30 139.999741 -0.000060 -0.000119 -78.915825 12.194361 10.873516 139.999756
[Rope2_Seg03]
29 140.000107 0.000030 0.000000 -32.843796 -11.757771 34.054905 140.000107
30 140.000107 0.000030 0.000000 -23.790388 -17.151951 26.031725 140.000107
[Rope2_Seg04]
29 139.999802 0.000000 -0.000060 -4.561633 -19.445347 14.055361 139.999802
30 139.999802 0.000000 -0.000060 -3.413294 -23.034906 12.722063 139.999802
[Rope2_Seg05]
29 139.999985 -0.000060 0.000119 -4.177593 -9.134278 22.284500 139.999985
30 139.999985 -0.000060 0.000119 -5.057143 -12.415779 23.522413 139.999985
[Rope2_Seg06]
29 139.999893 -0.000030 -0.000119 4.642315 -10.951273 41.376663 139.999893
30 139.999893 -0.000030 -0.000119 6.183862 -15.854457 46.616581 139.999893
[Rope2_Seg07]
29 139.999893 0.000060 -0.000060 8.351929 -3.466540 16.763048 139.999893
30 139.999893 0.000060 -0.000060 11.324527 -3.827406 16.958246 139.999893
[Rope2_Seg09]
29 121.338966 0.000089 -0.000060 33.793236 -1.359788 -0.847141 121.338966
30 121.338966 0.000089 -0.000060 33.793236 -1.359788 -0.847141 121.338966
[R_mid_hand01]
29 104.680779 11.144459 -10.335981 -44.145958 19.560671 21.759455 105.778534
30 104.680779 11.144459 -10.335981 -44.145947 19.560663 21.759447 105.778534
[R_mid_hand02]
29 104.070427 2.443552 8.231699 74.186180 -24.483597 7.232482 104.424065
30 104.070427 2.443552 8.231699 74.186195 -24.483599 7.232481 104.424065
[R_mid_hand03]
29 106.028137 -11.221827 -5.996406 -166.520828 8.347037 -28.494413 106.788818
30 106.028137 -11.221827 -5.996406 -166.520828 8.347037 -28.494413 106.788818
[spine02]
29 129.756927 0.001550 0.000119 0.303388 -4.050257 -12.146387 129.756927
30 129.756927 0.001550 0.000119 0.301802 -4.050375 -12.101543 129.756927
[spine03]
29 78.614304 0.081037 -4.899022 2.096148 3.727739 19.504196 78.766846
30 78.614273 0.081086 -4.899020 2.080818 3.738792 19.232761 78.766808
[pelvis]
29 169.435242 0.051022 0.000000 -0.060989 -0.180049 14.421349 169.435257
30 169.435242 0.051022 0.000000 -0.060892 -0.180082 14.359303 169.435257
[null_rope03_connect]
29 -1.257226 -2.466202 137.391083 -56.476379 -52.007282 122.431282 137.418976
30 -1.257226 -2.466202 137.391083 -54.981075 -56.948109 119.540771 137.418976
[null_rope04_connect]
29 -1.259640 -2.480268 -137.844437 -56.476379 -52.007282 122.431282 137.872513
30 -1.259640 -2.480268 -137.844437 -54.981075 -56.948109 119.540771 137.872513
[Rope3_Seg01]
29 0.000000 0.000000 0.000000 -102.746918 -25.015930 -129.692642 0.000000
30 0.000000 0.000000 0.000000 -108.789017 -22.093683 -123.967346 0.000000
[Rope3_Seg02]
29 139.999924 -0.000119 0.000060 3.901622 8.965460 7.310865 139.999924
30 139.999924 -0.000119 0.000060 1.820621 7.168515 8.399455 139.999924
[Rope3_Seg03]
29 139.999924 -0.000119 0.000119 10.612881 13.161827 9.626396 139.999924
30 139.999924 -0.000119 0.000119 4.789756 10.447631 11.751442 139.999924
[Rope3_Seg04]
29 139.999924 0.000119 0.000000 26.066442 14.340822 7.194705 139.999924
30 139.999924 0.000119 0.000000 18.693062 13.209313 11.781570 139.999924
[Rope3_Seg05]
29 139.999924 -0.000238 0.000060 62.010353 18.120846 0.291209 139.999924
30 139.999924 -0.000238 0.000060 103.173729 16.075842 9.530033 139.999924
[Rope3_Seg06]
29 139.999893 -0.000119 -0.000060 32.353836 9.739176 -18.141460 139.999893
30 139.999893 -0.000119 -0.000060 37.661537 6.523528 -14.502672 139.999893
[Rope3_Seg07]
29 139.999771 0.000060 -0.000119 7.936408 -1.149847 -13.125506 139.999771
30 139.999771 0.000060 -0.000119 6.009625 -2.530017 -9.210881 139.999771
[Rope3_Seg08]
29 139.999985 -0.000060 0.000000 2.713130 -1.407321 -6.189255 139.999985
30 139.999985 -0.000060 0.000000 2.189870 -1.980065 -4.856306 139.999985
[Rope3_Seg09]
29 90.185997 -0.000179 -0.000060 28.778042 -1.360527 -0.845299 90.185997
30 90.185997 -0.000179 -0.000060 26.271671 -1.361050 -0.845274 90.185997
[R_rear_hand01]
29 103.366196 -6.073594 -10.757982 -160.019470 14.769053 -24.439312 104.101845
30 103.366196 -6.073594 -10.757982 -160.019470 14.769056 -24.439318 104.101845
[R_rear_hand02]
29 100.509819 12.039542 -7.992327 -35.779446 15.980558 23.927948 101.543350
30 100.509819 12.039542 -7.992327 -35.779449 15.980559 23.927948 101.543350
[R_rear_hand03]
29 101.539970 5.215704 5.435467 83.711815 -25.208059 6.550416 101.819031
30 101.539970 5.215704 5.435467 83.711815 -25.208061 6.550416 101.819031
[Rope4_Seg01]
29 0.000000 0.000000 0.000000 -47.958576 61.054119 146.451691 0.000000
30 0.000000 0.000000 0.000000 -2.597425 60.716133 -167.067795 0.000000
[Rope4_Seg02]
29 139.999985 0.000060 0.000119 -1.630178 -4.258930 -10.624523 139.999985
30 139.999985 0.000060 0.000119 -2.423223 -6.979281 -15.755718 139.999985
[Rope4_Seg03]
29 139.999924 0.000000 -0.000238 1.841523 -11.462249 -2.380557 139.999924
30 139.999924 0.000000 -0.000238 1.693396 -12.441957 -4.373254 139.999924
[Rope4_Seg04]
29 139.999985 0.000000 0.000119 -2.274504 -2.543262 -5.447021 139.999985
30 139.999985 0.000000 0.000119 -5.099505 -2.019557 -8.040387 139.999985
[Rope4_Seg05]
29 139.999802 -0.000060 -0.000119 -18.415985 23.023430 -20.927919 139.999802
30 139.999802 -0.000060 -0.000119 -24.790833 20.326771 -24.364759 139.999802
[Rope4_Seg06]
29 139.999924 0.000000 0.000060 -4.728665 18.467283 -8.315144 139.999924
30 139.999924 0.000000 0.000060 -7.984162 19.898252 -9.778413 139.999924
[Rope4_Seg07]
29 139.999802 0.000000 0.000000 -0.342005 5.828979 -2.566298 139.999802
30 139.999802 0.000000 0.000000 -1.101205 6.681909 -2.847235 139.999802
[Rope4_Seg08]
29 139.999924 0.000000 0.000119 -1.530094 3.139668 -1.366367 139.999924
30 139.999924 0.000000 0.000119 -1.869732 3.574832 -1.452274 139.999924
[Rope4_Seg09]
29 90.185791 0.000060 0.000060 170.297699 2.229768 0.849970 90.185791
30 90.185791 0.000060 0.000060 168.708038 2.229498 0.849953 90.185791
[L_rear_hand01]
29 101.696655 -8.392275 -7.654577 -35.772331 -16.007246 156.036087 102.329041
30 101.696655 -8.392275 -7.654577 -36.052517 -15.278039 157.077148 102.329041
[L_rear_hand02]
29 102.726799 -1.568258 5.773216 83.710411 25.254475 173.442535 102.900848
30 102.726799 -1.568258 5.773216 83.769310 24.020374 173.595673 102.900848
[L_rear_hand03]
29 104.552910 9.721220 -10.420293 -160.032089 -14.785622 -155.515121 105.519653
30 104.552910 9.721220 -10.420293 -159.727219 -14.358830 -156.721298 105.519653
